<svg id="Ebene_1" data-name="Ebene 1" xmlns="http://www.w3.org/2000/svg" viewBox="0 0 190.51 212.6"><defs><style>.cls-1{fill:#9d2f08;}.cls-2{fill:#e9511d;}.cls-3{fill:#f39200;}.cls-4{fill:#f9b233;}</style></defs><path class="cls-1" d="M165.83,61.88,130.11,41.25v55l47.63,27.5V82.5A23.8,23.8,0,0,0,165.83,61.88Z" transform="translate(-11.04)"/><path class="cls-2" d="M153.92,97.14V110l23.82,13.75v-55l-47.63-27.5v27.5l11.64,6.78C153.66,82.41,154,90.26,153.92,97.14Z" transform="translate(-11.04)"/><path class="cls-3" d="M177.74,41.25,106.3,0V110l95.26,55V82.5A47.64,47.64,0,0,0,177.74,41.25Zm0,82.5-47.63-27.5v-55L153.93,55c23.81,13.75,23.82,27.5,23.81,41.25Z" transform="translate(-11.04)"/><polygon class="cls-3" points="23.81 41.25 35.72 48.12 35.72 116.88 23.81 123.75 23.81 41.25"/><polygon class="cls-3" points="59.53 20.63 71.44 27.5 71.44 96.25 59.53 103.13 59.53 20.63"/><path class="cls-4" d="M106.3,0,82.48,13.75v82.5l-11.9,6.88V20.63L46.76,34.38v82.5l-11.9,6.87V41.25l-1.14.66C19.69,50.06,11,66.28,11,82.5V165l95.26-55Z" transform="translate(-11.04)"/><polygon class="cls-1" points="71.44 206.25 71.44 192.5 130.98 158.13 142.88 165 71.44 206.25"/><polygon class="cls-1" points="35.72 185.63 35.55 171.97 95.25 137.5 107.16 144.38 35.72 185.63"/><path class="cls-2" d="M106.3,110,11,165l23.82,13.75L106.3,137.5l11.9,6.88L46.76,185.63l23.82,13.75L142,158.13,153.93,165,82.48,206.25l.57.33a47.89,47.89,0,0,0,47.06-.33L201.56,165Z" transform="translate(-11.04)"/></svg>